<?xml version="1.0" encoding="UTF-8" standalone="no"?>
<!-- Created with Inkscape (http://www.inkscape.org/) -->
<svg xmlns:dc="http://purl.org/dc/elements/1.1/" xmlns:cc="http://creativecommons.org/ns#" xmlns:rdf="http://www.w3.org/1999/02/22-rdf-syntax-ns#" xmlns:svg="http://www.w3.org/2000/svg" xmlns="http://www.w3.org/2000/svg" xmlns:sodipodi="http://sodipodi.sourceforge.net/DTD/sodipodi-0.dtd" xmlns:inkscape="http://www.inkscape.org/namespaces/inkscape" id="svg2595" sodipodi:version="0.32" inkscape:version="0.46" width="225" height="247.5" xml:space="preserve" sodipodi:docname="Benzodiazepine.svg" inkscape:output_extension="org.inkscape.output.svg.inkscape"><metadata id="metadata2600"><rdf:RDF><cc:Work rdf:about=""><dc:format>image/svg+xml</dc:format><dc:type rdf:resource="http://purl.org/dc/dcmitype/StillImage"/></cc:Work></rdf:RDF></metadata><defs id="defs2598"><inkscape:perspective sodipodi:type="inkscape:persp3d" inkscape:vp_x="0 : 526.18109 : 1" inkscape:vp_y="0 : 1000 : 0" inkscape:vp_z="744.09448 : 526.18109 : 1" inkscape:persp3d-origin="372.04724 : 350.78739 : 1" id="perspective2602"/><clipPath clipPathUnits="userSpaceOnUse" id="clipPath2612"><path d="M 0,0 L 180,0 L 180,198 L 0,198 L 0,0 z" id="path2614"/></clipPath></defs><sodipodi:namedview inkscape:window-height="777" inkscape:window-width="945" inkscape:pageshadow="2" inkscape:pageopacity="0.0" guidetolerance="10.0" gridtolerance="10.0" objecttolerance="10.0" borderopacity="1.0" bordercolor="#666666" pagecolor="#ffffff" id="base" showgrid="false" inkscape:zoom="2.0121212" inkscape:cx="112.5" inkscape:cy="123.75" inkscape:window-x="20" inkscape:window-y="20" inkscape:current-layer="g2610"/><g id="g2604" inkscape:groupmode="layer" inkscape:label="Benzodiazepine" transform="matrix(1.25,0,0,-1.25,0,247.5)"><g id="g2606"/><g id="g2608"><g id="g2610" clip-path="url(#clipPath2612)"><path d="M 42.9,110.5 L 42,110 L 41.1,110.5 L 41.1,140.5 L 42.9,139.5" style="fill:#231f20;fill-opacity:1;fill-rule:nonzero;stroke:none" id="path2616"/><path d="M 45.6,112.6 L 47.399999,112.6 L 47.399999,137.4 L 45.6,137.4 L 45.6,112.6 z" style="fill:#231f20;fill-opacity:1;fill-rule:nonzero;stroke:none" id="path2618"/><path d="M 68,96.05 L 68,93.95 L 42,108.95 L 42,110 L 42.9,110.5" style="fill:#231f20;fill-opacity:1;fill-rule:nonzero;stroke:none" id="path2620"/><path d="M 93.1,110.5 L 94,110 L 93.9,108.9 L 68,93.95 L 68,96.05" style="fill:#231f20;fill-opacity:1;fill-rule:nonzero;stroke:none" id="path2622"/><path d="M 89.05,113.4 L 89.95,111.8 L 68.45,99.4 L 67.55,101" style="fill:#231f20;fill-opacity:1;fill-rule:nonzero;stroke:none" id="path2624"/><path d="M 93.1,139.5 L 94,140 L 94.9,139.55 L 94.9,110.45 L 94,110 L 93.1,110.5" style="fill:#231f20;fill-opacity:1;fill-rule:nonzero;stroke:none" id="path2626"/><path d="M 68,153.95 L 68,156.05 L 93.9,141.1 L 94,140 L 93.1,139.5" style="fill:#231f20;fill-opacity:1;fill-rule:nonzero;stroke:none" id="path2628"/><path d="M 67.55,149 L 68.45,150.6 L 89.95,138.2 L 89.05,136.6" style="fill:#231f20;fill-opacity:1;fill-rule:nonzero;stroke:none" id="path2630"/><path d="M 42.9,139.5 L 41.1,140.5 L 68,156.05 L 68,153.95" style="fill:#231f20;fill-opacity:1;fill-rule:nonzero;stroke:none" id="path2632"/><text transform="matrix(1,0,0,-1,140.9,92.1)" id="text2634" style="fill:#0000ff"><tspan style="fill:#0000ff;fill-opacity:1;fill-rule:nonzero;stroke:none;font-family:Helvetica;font-variant:normal;font-weight:normal;font-size:16;writing-mode:lr;-inkscape-font-specification:Helvetica" x="0" y="0" id="tspan2636">N</tspan></text>
<text transform="matrix(1,0,0,-1,111.6504,152.8504)" id="text2638" style="fill:#0000ff"><tspan style="fill:#0000ff;fill-opacity:1;fill-rule:nonzero;stroke:none;font-family:Helvetica;font-variant:normal;font-weight:normal;font-size:16;writing-mode:lr;-inkscape-font-specification:Helvetica" x="0" y="0" id="tspan2640">N</tspan></text>
<path d="M 117.65,92.25 L 117.45,91.3 L 116.45,90.95 L 93.9,108.9 L 94,110 L 94.9,110.45" style="fill:#231f20;fill-opacity:1;fill-rule:nonzero;stroke:none" id="path2642"/><path d="M 139.3,97.2 L 139.7,95.45 L 118.2,90.55 L 117.45,91.3 L 117.65,92.25" style="fill:#231f20;fill-opacity:1;fill-rule:nonzero;stroke:none" id="path2644"/><path d="M 138.3,101.6 L 138.7,99.85 L 118.75,95.3 L 118.35,97.05" style="fill:#231f20;fill-opacity:1;fill-rule:nonzero;stroke:none" id="path2646"/><path d="M 158.7,125 L 160.7,125 L 151.4,105.7 L 149.8,106.5" style="fill:#231f20;fill-opacity:1;fill-rule:nonzero;stroke:none" id="path2648"/><path d="M 146.05,151.25 L 147.3,152.8 L 160.7,125 L 158.7,125" style="fill:#231f20;fill-opacity:1;fill-rule:nonzero;stroke:none" id="path2650"/><path d="M 124.35,156.2 L 124.75,157.95 L 147.3,152.8 L 146.05,151.25" style="fill:#231f20;fill-opacity:1;fill-rule:nonzero;stroke:none" id="path2652"/><path d="M 94.9,139.55 L 94,140 L 93.9,141.1 L 109.65,153.65 L 110.8,152.25" style="fill:#231f20;fill-opacity:1;fill-rule:nonzero;stroke:none" id="path2654"/><text transform="matrix(1,0,0,-1,159.35,169.65)" id="text2656"><tspan style="fill:#231f20;fill-opacity:1;fill-rule:nonzero;stroke:none;font-family:Helvetica;font-variant:normal;font-weight:normal;font-size:16;writing-mode:lr;-inkscape-font-specification:Helvetica" x="0" y="0" id="tspan2658">R</tspan></text>
<text transform="matrix(1,0,0,-1,170.9047,166.65)" id="text2660"><tspan style="fill:#231f20;fill-opacity:1;fill-rule:nonzero;stroke:none;font-family:Helvetica;font-variant:normal;font-weight:normal;font-size:12;writing-mode:lr;-inkscape-font-specification:Helvetica" x="0" y="0" id="tspan2662">2</tspan></text>
<path d="M 157,170.05 L 158.45,168.9 L 144.95,152 L 143.55,153.15" style="fill:#231f20;fill-opacity:1;fill-rule:nonzero;stroke:none" id="path2664"/><path d="M 160.55,167.25 L 161.95,166.1 L 148.45,149.2 L 147.05,150.35" style="fill:#231f20;fill-opacity:1;fill-rule:nonzero;stroke:none" id="path2666"/><path d="M 111.75,62.35 L 110.75,62.05 L 110,62.75 L 116.45,90.95 L 117.45,91.3 L 118.2,90.55" style="fill:#231f20;fill-opacity:1;fill-rule:nonzero;stroke:none" id="path2668"/><path d="M 82.85,52.5 L 81.35,53.9 L 110,62.75 L 110.75,62.05 L 110.55,61.05" style="fill:#231f20;fill-opacity:1;fill-rule:nonzero;stroke:none" id="path2670"/><path d="M 86.15,48.8 L 85.65,50.55 L 109.35,57.85 L 109.85,56.1" style="fill:#231f20;fill-opacity:1;fill-rule:nonzero;stroke:none" id="path2672"/><path d="M 76.4,24.25 L 74.4,23.65 L 81.35,53.9 L 82.85,52.5" style="fill:#231f20;fill-opacity:1;fill-rule:nonzero;stroke:none" id="path2674"/><path d="M 97.65,4.55 L 97.2,2.55 L 74.4,23.65 L 76.4,24.25" style="fill:#231f20;fill-opacity:1;fill-rule:nonzero;stroke:none" id="path2676"/><path d="M 99.2,9.3 L 97.95,7.95 L 79.75,24.85 L 81,26.15" style="fill:#231f20;fill-opacity:1;fill-rule:nonzero;stroke:none" id="path2678"/><path d="M 125.3,13.1 L 126.85,11.7 L 97.2,2.55 L 97.65,4.55" style="fill:#231f20;fill-opacity:1;fill-rule:nonzero;stroke:none" id="path2680"/><path d="M 131.75,41.35 L 132.75,41.65 L 133.5,40.95 L 126.85,11.7 L 125.3,13.1" style="fill:#231f20;fill-opacity:1;fill-rule:nonzero;stroke:none" id="path2682"/><path d="M 126.9,40.3 L 128.65,39.9 L 123.15,15.75 L 121.4,16.15" style="fill:#231f20;fill-opacity:1;fill-rule:nonzero;stroke:none" id="path2684"/><path d="M 110.55,61.05 L 110.75,62.05 L 111.75,62.35 L 133,42.65 L 132.75,41.65 L 131.75,41.35" style="fill:#231f20;fill-opacity:1;fill-rule:nonzero;stroke:none" id="path2686"/><text transform="matrix(1,0,0,-1,104.725,182.1)" id="text2688"><tspan style="fill:#231f20;fill-opacity:1;fill-rule:nonzero;stroke:none;font-family:Helvetica;font-variant:normal;font-weight:normal;font-size:16;writing-mode:lr;-inkscape-font-specification:Helvetica" x="0" y="0" id="tspan2690">R</tspan></text>
<text transform="matrix(1,0,0,-1,116.2797,179.1)" id="text2692"><tspan style="fill:#231f20;fill-opacity:1;fill-rule:nonzero;stroke:none;font-family:Helvetica;font-variant:normal;font-weight:normal;font-size:12;writing-mode:lr;-inkscape-font-specification:Helvetica" x="0" y="0" id="tspan2694">1</tspan></text>
<path d="M 111.8,179.3 L 113.55,179.7 L 116.45,167.1 L 114.7,166.7" style="fill:#231f20;fill-opacity:1;fill-rule:nonzero;stroke:none" id="path2696"/><text transform="matrix(1,0,0,-1,2.225,89.15)" id="text2698"><tspan style="fill:#231f20;fill-opacity:1;fill-rule:nonzero;stroke:none;font-family:Helvetica;font-variant:normal;font-weight:normal;font-size:16;writing-mode:lr;-inkscape-font-specification:Helvetica" x="0" y="0" id="tspan2700">R</tspan></text>
<text transform="matrix(1,0,0,-1,13.7797,86.15)" id="text2702"><tspan style="fill:#231f20;fill-opacity:1;fill-rule:nonzero;stroke:none;font-family:Helvetica;font-variant:normal;font-weight:normal;font-size:12;writing-mode:lr;-inkscape-font-specification:Helvetica" x="0" y="0" id="tspan2704">7</tspan></text>
<path d="M 20.2,96.35 L 19.3,97.9 L 41.1,110.5 L 42,110 L 42,108.95" style="fill:#231f20;fill-opacity:1;fill-rule:nonzero;stroke:none" id="path2706"/><text transform="matrix(1,0,0,-1,155.35,44.65)" id="text2708"><tspan style="fill:#231f20;fill-opacity:1;fill-rule:nonzero;stroke:none;font-family:Helvetica;font-variant:normal;font-weight:normal;font-size:16;writing-mode:lr;-inkscape-font-specification:Helvetica" x="0" y="0" id="tspan2710">R</tspan></text>
<text transform="matrix(1,0,0,-1,166.9047,41.65)" id="text2712"><tspan style="fill:#231f20;fill-opacity:1;fill-rule:nonzero;stroke:none;font-family:Helvetica;font-variant:normal;font-weight:normal;font-size:12;writing-mode:lr;-inkscape-font-specification:Helvetica" x="0" y="0" id="tspan2714">2</tspan></text>
<text transform="matrix(1,0,0,-1,173.5785,44.65)" id="text2716"><tspan style="fill:#231f20;fill-opacity:1;fill-rule:nonzero;stroke:none;font-family:Helvetica;font-variant:normal;font-weight:normal;font-size:16;writing-mode:lr;-inkscape-font-specification:Helvetica" x="0" y="0" id="tspan2718">'</tspan></text>
<path d="M 153.75,49.05 L 154.25,47.35 L 133.5,40.95 L 132.75,41.65 L 133,42.65" style="fill:#231f20;fill-opacity:1;fill-rule:nonzero;stroke:none" id="path2720"/></g></g></g></svg>